<?xml version="1.0" standalone="no"?><!DOCTYPE svg PUBLIC "-//W3C//DTD SVG 1.1//EN" "http://www.w3.org/Graphics/SVG/1.1/DTD/svg11.dtd"><svg t="1642389694878" class="icon" viewBox="0 0 1024 1024" version="1.1" xmlns="http://www.w3.org/2000/svg" p-id="9254" xmlns:xlink="http://www.w3.org/1999/xlink" width="200" height="200"><defs><style type="text/css"></style></defs><path d="M343.9 661.9H146.6c-30.9 0-56-25.1-56-56V146.3c0-30.9 25.1-56 56-56h394.6c30.9 0 56 25.1 56 56v241.8c0 19.9-16.1 36-36 36H379.9V626c0 19.8-16.1 35.9-36 35.9z m-181.3-72h145.3V388.1c0-19.9 16.1-36 36-36h181.4V162.3H162.6v427.6z" p-id="9255"></path><path d="M134.9 135.9m-54.9 0a54.9 54.9 0 1 0 109.8 0 54.9 54.9 0 1 0-109.8 0Z" p-id="9256"></path><path d="M134.9 226.8C84.8 226.8 44 186 44 135.9S84.8 45 134.9 45s90.9 40.8 90.9 90.9-40.8 90.9-90.9 90.9z m0-109.8c-10.4 0-18.9 8.5-18.9 18.9s8.5 18.9 18.9 18.9 18.9-8.5 18.9-18.9-8.5-18.9-18.9-18.9z" p-id="9257"></path><path d="M561.3 135.9m-54.9 0a54.9 54.9 0 1 0 109.8 0 54.9 54.9 0 1 0-109.8 0Z" p-id="9258"></path><path d="M561.3 226.8c-50.1 0-90.9-40.8-90.9-90.9S511.2 45 561.3 45c50.1 0 90.9 40.8 90.9 90.9s-40.8 90.9-90.9 90.9z m0-109.8c-10.4 0-18.9 8.5-18.9 18.9s8.5 18.9 18.9 18.9 18.9-8.5 18.9-18.9-8.5-18.9-18.9-18.9z" p-id="9259"></path><path d="M134.9 617.7m-54.9 0a54.9 54.9 0 1 0 109.8 0 54.9 54.9 0 1 0-109.8 0Z" p-id="9260"></path><path d="M134.9 708.6c-50.1 0-90.9-40.8-90.9-90.9 0-50.1 40.8-90.9 90.9-90.9s90.9 40.8 90.9 90.9c0 50.1-40.8 90.9-90.9 90.9z m0-109.8c-10.4 0-18.9 8.5-18.9 18.9s8.5 18.9 18.9 18.9 18.9-8.5 18.9-18.9-8.5-18.9-18.9-18.9z" p-id="9261"></path><path d="M880.7 933.4H421.1c-30.9 0-56-25.1-56-56V731.9c0-19.9 16.1-36 36-36h250.6V397.7c0-19.9 16.1-36 36-36h193c30.9 0 56 25.1 56 56v459.6c0 31-25.1 56.1-56 56.1z m-443.6-72h427.6V433.7h-141v298.1c0 19.9-16.1 36-36 36H437.1v93.6z" p-id="9262"></path><path d="M892.5 407.4m-54.9 0a54.9 54.9 0 1 0 109.8 0 54.9 54.9 0 1 0-109.8 0Z" p-id="9263"></path><path d="M892.5 498.3c-50.1 0-90.9-40.8-90.9-90.9 0-50.1 40.8-90.9 90.9-90.9 50.1 0 90.9 40.8 90.9 90.9 0 50.1-40.7 90.9-90.9 90.9z m0-109.8c-10.4 0-18.9 8.5-18.9 18.9s8.5 18.9 18.9 18.9 18.9-8.5 18.9-18.9-8.4-18.9-18.9-18.9z" p-id="9264"></path><path d="M409.4 889.2m-54.9 0a54.9 54.9 0 1 0 109.8 0 54.9 54.9 0 1 0-109.8 0Z" p-id="9265"></path><path d="M409.4 980.1c-50.1 0-90.9-40.8-90.9-90.9 0-50.1 40.8-90.9 90.9-90.9s90.9 40.8 90.9 90.9c0 50.1-40.8 90.9-90.9 90.9z m0-109.8c-10.4 0-18.9 8.5-18.9 18.9s8.5 18.9 18.9 18.9 18.9-8.5 18.9-18.9-8.5-18.9-18.9-18.9z" p-id="9266"></path><path d="M892.5 889.2m-54.9 0a54.9 54.9 0 1 0 109.8 0 54.9 54.9 0 1 0-109.8 0Z" p-id="9267"></path><path d="M892.5 980.1c-50.1 0-90.9-40.8-90.9-90.9 0-50.1 40.8-90.9 90.9-90.9 50.1 0 90.9 40.8 90.9 90.9 0 50.1-40.7 90.9-90.9 90.9z m0-109.8c-10.4 0-18.9 8.5-18.9 18.9s8.5 18.9 18.9 18.9 18.9-8.5 18.9-18.9-8.4-18.9-18.9-18.9z" p-id="9268"></path></svg>