<?xml version="1.0" standalone="no"?><!DOCTYPE svg PUBLIC "-//W3C//DTD SVG 1.1//EN" "http://www.w3.org/Graphics/SVG/1.1/DTD/svg11.dtd"><svg t="1642389668551" class="icon" viewBox="0 0 1024 1024" version="1.1" xmlns="http://www.w3.org/2000/svg" p-id="8221" xmlns:xlink="http://www.w3.org/1999/xlink" width="200" height="200"><defs><style type="text/css"></style></defs><path d="M921.1 62.6H101.6c-10.1 0-18.3 8.2-18.3 18.3v263.8c0 10.1 8.2 18.3 18.3 18.3h819.5c10.1 0 18.3-8.2 18.3-18.3V80.9c0-10.1-8.2-18.3-18.3-18.3z m-18.3 263.8h-72.4v-59.1c0-10.1-8.2-18.3-18.3-18.3-10.1 0-18.3 8.2-18.3 18.3v59.1H682.6v-94.3c0-10.1-8.2-18.3-18.3-18.3-10.1 0-18.3 8.2-18.3 18.3v94.3H534.9v-59.1c0-10.1-8.2-18.3-18.3-18.3-10.1 0-18.3 8.2-18.3 18.3v59.1H387.2v-87.2c0-10.1-8.2-18.3-18.3-18.3s-18.3 8.2-18.3 18.3v87.2H239.5v-59.1c0-10.1-8.2-18.3-18.3-18.3s-18.3 8.2-18.3 18.3v59.1h-83V99.1h782.9v227.3zM919.3 730.8c-10.1 0-18.3 8.2-18.3 18.3v95.1H136.3v-95.1c0-10.1-8.2-18.3-18.3-18.3s-18.3 8.2-18.3 18.3v190.3c0 10.1 8.2 18.3 18.3 18.3s18.3-8.2 18.3-18.3v-58.5H901v58.5c0 10.1 8.2 18.3 18.3 18.3 10.1 0 18.3-8.2 18.3-18.3V749.1c0-10.1-8.2-18.3-18.3-18.3z" p-id="8222"></path></svg>