<?xml version="1.0" standalone="no"?><!DOCTYPE svg PUBLIC "-//W3C//DTD SVG 1.1//EN" "http://www.w3.org/Graphics/SVG/1.1/DTD/svg11.dtd"><svg t="1642389679881" class="icon" viewBox="0 0 1024 1024" version="1.1" xmlns="http://www.w3.org/2000/svg" p-id="9064" xmlns:xlink="http://www.w3.org/1999/xlink" width="200" height="200"><defs><style type="text/css"></style></defs><path d="M731.15 785.12H510.47c-29.95 0-54.31-24.36-54.31-54.31V568.18H292.85c-29.95 0-54.31-24.36-54.31-54.31V293.19c0-29.95 24.36-54.31 54.31-54.31h220.68c29.95 0 54.31 24.36 54.31 54.31v162.63h163.31c29.95 0 54.31 24.36 54.31 54.31v220.68c0 29.95-24.36 54.31-54.31 54.31z m-199.07-75.93h177.45V531.74H532.08v177.45z m199.07-177.45z m-416.68-39.48h177.45V314.81H314.47v177.45z" fill="#7F8693" p-id="9065"></path><path d="M867.59 959.79H156.41c-50.84 0-92.2-41.36-92.2-92.2V156.41c0-50.84 41.36-92.2 92.2-92.2h711.18c50.84 0 92.2 41.36 92.2 92.2v711.18c0 50.84-41.36 92.2-92.2 92.2zM156.41 140.14c-8.82 0-16.27 7.45-16.27 16.27v711.18c0 8.82 7.45 16.27 16.27 16.27h711.18c8.82 0 16.27-7.45 16.27-16.27V156.41c0-8.82-7.45-16.27-16.27-16.27H156.41z" fill="#7F8693" p-id="9066"></path></svg>