<?xml version="1.0" standalone="no"?><!DOCTYPE svg PUBLIC "-//W3C//DTD SVG 1.1//EN" "http://www.w3.org/Graphics/SVG/1.1/DTD/svg11.dtd"><svg t="1642389759819" class="icon" viewBox="0 0 1024 1024" version="1.1" xmlns="http://www.w3.org/2000/svg" p-id="11298" xmlns:xlink="http://www.w3.org/1999/xlink" width="200" height="200"><defs><style type="text/css"></style></defs><path d="M146.4832 901.12a20.48 20.48 0 0 1-20.48-19.968V308.224a63.4368 63.4368 0 0 1 39.68-58.5216l150.3744-62.5664a66.56 66.56 0 0 1 61.44 5.4272A63.0784 63.0784 0 0 1 406.9376 245.76v52.9408a20.48 20.48 0 0 1-40.96 0V245.76a23.0912 23.0912 0 0 0-10.9056-19.7632 24.5248 24.5248 0 0 0-22.9376-2.048L181.76 286.4128a23.7056 23.7056 0 0 0-14.7968 21.8112v572.928a20.48 20.48 0 0 1-20.48 19.968z" fill="#2B4360" p-id="11299"></path><path d="M630.9888 901.12a20.48 20.48 0 0 1-20.48-19.968V441.344c0-13.6704-13.6192-24.7808-30.4128-24.7808H415.744c-16.7936 0-30.4128 11.1104-30.4128 24.7808v237.4144a20.48 20.48 0 0 1-40.96 0V441.344c0-35.84 32-64.7168 71.3728-64.7168h164.352c39.3728 0 71.3728 29.0304 71.3728 64.7168v439.808a20.48 20.48 0 0 1-20.48 19.968z" fill="#2B4360" p-id="11300"></path><path d="M880.64 901.12a20.48 20.48 0 0 1-20.48-19.968V162.1504c0-9.3696-14.7456-19.8144-34.5088-19.8144h-213.5552c-19.7632 0-34.5088 10.24-34.5088 19.8144v136.5504a20.48 20.48 0 0 1-40.96 0V162.1504c0-33.4848 33.1264-59.7504 75.4688-59.7504h213.5552c42.2912 0 75.4688 26.2656 75.4688 59.7504V881.152a20.48 20.48 0 0 1-20.48 19.968z" fill="#2B4360" p-id="11301"></path><path d="M553.4208 565.504H442.4192a20.48 20.48 0 0 1 0-40.96h111.0016a20.48 20.48 0 0 1 0 40.96zM784.64 379.648a20.48 20.48 0 0 1-20.48-20.48V248.1664a20.48 20.48 0 0 1 40.96 0v111.0016a20.48 20.48 0 0 1-20.48 20.48z" fill="#FF4A41" p-id="11302"></path><path d="M549.632 691.2a20.48 20.48 0 0 1-20.48-20.48v-35.84a20.48 20.48 0 0 1 40.96 0v35.84a20.48 20.48 0 0 1-20.48 20.48zM549.632 801.28a20.48 20.48 0 0 1-20.48-20.48v-35.84a20.48 20.48 0 0 1 40.96 0v35.84a20.48 20.48 0 0 1-20.48 20.48zM680.96 304.64a20.48 20.48 0 0 1-20.48-20.48v-35.84a20.48 20.48 0 0 1 40.96 0v35.84a20.48 20.48 0 0 1-20.48 20.48z" fill="#FB8A13" p-id="11303"></path><path d="M680.96 404.48a20.48 20.48 0 0 1-20.48-20.48v-35.84a20.48 20.48 0 0 1 40.96 0v35.84a20.48 20.48 0 0 1-20.48 20.48z" fill="#FF4A41" p-id="11304"></path><path d="M784.64 490.9568a20.48 20.48 0 0 1-20.48-20.48v-35.84a20.48 20.48 0 0 1 40.96 0v35.84a20.48 20.48 0 0 1-20.48 20.48z" fill="#FB8A13" p-id="11305"></path><path d="M784.64 590.7968a20.48 20.48 0 0 1-20.48-20.48v-35.84a20.48 20.48 0 0 1 40.96 0v35.84a20.48 20.48 0 0 1-20.48 20.48z" fill="#FF4A41" p-id="11306"></path><path d="M784.64 794.624a20.48 20.48 0 0 1-20.48-20.48v-111.0016a20.48 20.48 0 1 1 40.96 0v111.0016a20.48 20.48 0 0 1-20.48 20.48z" fill="#FB8A13" p-id="11307"></path><path d="M266.496 411.648a20.48 20.48 0 0 1-20.48-20.48v-35.84a20.48 20.48 0 0 1 40.96 0v35.84a20.48 20.48 0 0 1-20.48 20.48z" fill="#FF4A41" p-id="11308"></path><path d="M266.496 515.584a20.48 20.48 0 0 1-20.48-20.48v-35.84a20.48 20.48 0 0 1 40.96 0v35.84a20.48 20.48 0 0 1-20.48 20.48z" fill="#FB8A13" p-id="11309"></path><path d="M266.496 619.52a20.48 20.48 0 0 1-20.48-20.48v-35.84a20.48 20.48 0 0 1 40.96 0v35.84a20.48 20.48 0 0 1-20.48 20.48z" fill="#FF4A41" p-id="11310"></path><path d="M266.496 723.456a20.48 20.48 0 0 1-20.48-20.48v-35.84a20.48 20.48 0 0 1 40.96 0v35.84a20.48 20.48 0 0 1-20.48 20.48z" fill="#FB8A13" p-id="11311"></path></svg>