<svg xmlns="http://www.w3.org/2000/svg" xmlns:xlink="http://www.w3.org/1999/xlink" width="68.16072136023945" height="39" viewBox="0 0 68.16072136023945 39" fill="none"><rect x="0" y="0" width="0" height="0" fill="rgba(249, 249, 249, 1)" /><path  id="直线 1" style="stroke:#292727; stroke-width:1; stroke-opacity:1; stroke-dasharray:0 0" transform="translate(0 20)  rotate(0 0.0005 7)" d="M0,0L0,14 " /><path  id="直线 2" style="stroke:#292727; stroke-width:1; stroke-opacity:1; stroke-dasharray:0 0" transform="translate(0 0)  rotate(0 30.5 10)" d="M0,20L61,0 " /><path  id="直线 4" style="stroke:#292727; stroke-width:1; stroke-opacity:1; stroke-dasharray:0 0" transform="translate(0 34)  rotate(0 3.5 2.5)" d="M0,0L7,5 " /><path  id="直线 5" style="stroke:#292727; stroke-width:1; stroke-opacity:1; stroke-dasharray:0 0" transform="translate(7 18.480620842476753)  rotate(0 30.580360680119718 9.759689578761611)" d="M0,19.52L61.16,0 " /><path  id="直线 6" style="stroke:#292727; stroke-width:1; stroke-opacity:1; stroke-dasharray:0 0" transform="translate(61 0)  rotate(0 3.498952625264102 2.4994660482105995)" d="M0,0L7,5 " /><path  id="直线 3" style="stroke:#292727; stroke-width:1; stroke-opacity:1; stroke-dasharray:0 0" transform="translate(67.32999108175471 5.860353822503498)  rotate(0 0.000548576770067355 6.999999978504546)" d="M0,0L0,14 " /><path  id="直线 6" style="stroke:#292727; stroke-width:1; stroke-opacity:1; stroke-dasharray:0 0" transform="translate(0 20)  rotate(0 3.928258986739934 1.65783467149285)" d="M0,0L7.86,3.32 " /><path  id="直线 7" style="stroke:#292727; stroke-width:1; stroke-opacity:1; stroke-dasharray:0 0" transform="translate(8 22)  rotate(0 0.0005 7.5)" d="M0,15L0,0 " /><path  id="直线 8" style="stroke:#292727; stroke-width:1; stroke-opacity:1; stroke-dasharray:0 0" transform="translate(7 5)  rotate(0 30 9.5)" d="M0,19L60,0 " /></svg>