<svg xmlns="http://www.w3.org/2000/svg" xmlns:xlink="http://www.w3.org/1999/xlink" width="77.00099999999998" height="91" viewBox="0 0 77.00099999999998 91" fill="none"><rect x="0" y="0" width="0" height="0" fill="rgba(249, 249, 249, 1)" /><path  id="直线 1" style="stroke:#292727; stroke-width:1; stroke-opacity:1; stroke-dasharray:0 0" transform="translate(0 0)  rotate(0 21 9)" d="M0,18L42,0 " /><path  id="直线 2" style="stroke:#292727; stroke-width:1; stroke-opacity:1; stroke-dasharray:0 0" transform="translate(42 0)  rotate(0 17.5 9)" d="M0,0L35,18 " /><path  id="直线 3" style="stroke:#292727; stroke-width:1; stroke-opacity:1; stroke-dasharray:0 0" transform="translate(0 18)  rotate(0 0.0005 25)" d="M0,0L0,50 " /><path  id="直线 5" style="stroke:#292727; stroke-width:1; stroke-opacity:1; stroke-dasharray:0 0" transform="translate(77 18)  rotate(0 0.0005 24.5)" d="M0,0L0,49 " /><path  id="直线 4" style="stroke:#292727; stroke-width:1; stroke-opacity:1; stroke-dasharray:0 0" transform="translate(42 0)  rotate(0 0.0005 20.5)" d="M0,0L0,41 " /><path  id="直线 6" style="stroke:#292727; stroke-width:1; stroke-opacity:1; stroke-dasharray:0 0" transform="translate(0 41)  rotate(0 21 8)" d="M0,16L42,0 " /><path  id="直线 7" style="stroke:#292727; stroke-width:1; stroke-opacity:1; stroke-dasharray:0 0" transform="translate(42 41)  rotate(0 17.5 8)" d="M0,0L35,16 " /><path id="直线 8"  style="fill:#1C1B1B" transform="translate(0 57)  rotate(0 17 10.5)" opacity="1" d="" /><path  id="直线 8" style="stroke:#292727; stroke-width:1; stroke-opacity:1; stroke-dasharray:0 0" transform="translate(0 57)  rotate(0 17 10.5)" d="M0,0L34,21 " /><path id="直线 9"  style="fill:#1C1B1B" transform="translate(34 57)  rotate(0 21.5 10.5)" opacity="1" d="" /><path  id="直线 9" style="stroke:#292727; stroke-width:1; stroke-opacity:1; stroke-dasharray:0 0" transform="translate(34 57)  rotate(0 21.5 10.5)" d="M0,21L43,0 " /><path id="直线 10"  style="fill:#1C1B1B" transform="translate(0 68)  rotate(0 17 11.5)" opacity="1" d="" /><path  id="直线 10" style="stroke:#292727; stroke-width:1; stroke-opacity:1; stroke-dasharray:0 0" transform="translate(0 68)  rotate(0 17 11.5)" d="M0,0L34,23 " /><path id="直线 11"  style="fill:#1C1B1B" transform="translate(36 68)  rotate(0 20.5 11.5)" opacity="1" d="" /><path  id="直线 11" style="stroke:#292727; stroke-width:1; stroke-opacity:1; stroke-dasharray:0 0" transform="translate(36 68)  rotate(0 20.5 11.5)" d="M0,23L41,0 " /></svg>