<?xml version="1.0" standalone="no"?><!DOCTYPE svg PUBLIC "-//W3C//DTD SVG 1.1//EN" "http://www.w3.org/Graphics/SVG/1.1/DTD/svg11.dtd"><svg t="1642647968483" class="icon" viewBox="0 0 1024 1024" version="1.1" xmlns="http://www.w3.org/2000/svg" p-id="4573" xmlns:xlink="http://www.w3.org/1999/xlink" width="200" height="200"><defs><style type="text/css"></style></defs><path d="M639.488 863.232H198.144c-8.704 0-15.36-6.656-15.36-15.36V362.496c0-111.104 90.624-201.728 201.728-201.728h441.344c8.704 0 15.36 6.656 15.36 15.36v485.888c-0.512 111.104-91.136 201.216-201.728 201.216z m-425.984-30.72h425.472c93.696 0 170.496-76.288 171.008-170.496V191.488H384.512c-94.208 0-171.008 76.288-171.008 171.008v470.016z" p-id="4574"></path><path d="M649.216 422.4c-3.584 0-6.656-1.536-9.216-4.096l-29.184-31.232-29.184 31.232c-4.608 5.12-12.8 5.632-17.92 0.512-5.12-4.608-5.632-12.8-0.512-17.92l38.912-41.472c2.56-2.56 5.632-4.096 9.216-4.096s7.168 1.536 9.216 4.096l38.912 41.472c4.608 5.12 4.608 13.312-0.512 17.92-3.584 2.048-6.656 3.584-9.728 3.584zM610.304 668.672c-3.584 0-7.168-1.536-9.216-4.096l-38.912-41.472c-4.608-5.12-4.608-13.312 0.512-17.92 5.12-4.608 13.312-4.608 17.92 0.512l29.184 31.232 29.184-31.232c4.608-5.12 12.8-5.632 17.92-0.512 5.12 4.608 5.632 12.8 0.512 17.92l-38.912 41.472c-1.024 3.072-4.608 4.096-8.192 4.096z" p-id="4575"></path><path d="M610.304 648.192c-7.168 0-12.8-5.632-12.8-12.8V386.56c0-7.168 5.632-12.8 12.8-12.8s12.8 5.632 12.8 12.8v248.832c0 7.168-5.632 12.8-12.8 12.8z" p-id="4576"></path><path d="M509.952 455.68H375.296c-7.168 0-12.8-5.632-12.8-12.8s5.632-12.8 12.8-12.8h134.656c7.168 0 12.8 5.632 12.8 12.8S517.12 455.68 509.952 455.68zM509.952 520.192H375.296c-7.168 0-12.8-5.632-12.8-12.8s5.632-12.8 12.8-12.8h134.656c7.168 0 12.8 5.632 12.8 12.8s-5.632 12.8-12.8 12.8zM509.44 593.92H374.784c-7.168 0-12.8-5.632-12.8-12.8s5.632-12.8 12.8-12.8h134.656c7.168 0 12.8 5.632 12.8 12.8s-6.144 12.8-12.8 12.8z" p-id="4577"></path></svg>