<?xml version="1.0" standalone="no"?><!DOCTYPE svg PUBLIC "-//W3C//DTD SVG 1.1//EN" "http://www.w3.org/Graphics/SVG/1.1/DTD/svg11.dtd"><svg t="1642389710799" class="icon" viewBox="0 0 1024 1024" version="1.1" xmlns="http://www.w3.org/2000/svg" p-id="9473" xmlns:xlink="http://www.w3.org/1999/xlink" width="200" height="200"><defs><style type="text/css"></style></defs><path d="M300.08 439.79l170 61.15v199.5l-170-61.15v-199.5m-28.32-40.3V659.2l226.6 81.53V481l-226.6-81.54z" p-id="9474"></path><path d="M539.8 490.99l198.28-71.35v229.6L539.8 720.59v-229.6z" fill="#FFE100" p-id="9475"></path><path d="M723.92 439.79v199.5L554 700.44v-199.5l169.95-61.15m28.32-40.3L525.64 481v259.7l226.6-81.53V399.49zM515.19 313.94L656.13 372 512 426.72l-143-51.56 146.24-61.22m-0.08-30.67L290.9 377.14l221.35 79.78 220.85-83.8-218-89.85z" p-id="9476"></path><path d="M709 941.13l-196-25.48 1.82-28.2c208.42 0 378-169.56 378-378 0-157.07-94.55-295.38-240.87-352.36l10.27-26.38C819.44 192 921.07 340.64 921.07 509.47c0 186.8-126.71 344.56-298.7 391.84l90.3 11.74zM361.85 893.27C204.56 832 102.93 683.35 102.93 514.53c0-186.8 126.71-344.56 298.7-391.84L311.33 111 315 82.87l196.07 25.48-1.82 28.2c-208.42 0-378 169.56-378 378 0 157.06 94.55 295.37 240.87 352.35z" p-id="9477"></path></svg>