<svg xmlns="http://www.w3.org/2000/svg" xmlns:xlink="http://www.w3.org/1999/xlink" width="56.000999999999976" height="121" viewBox="0 0 56.000999999999976 121" fill="none"><rect x="0" y="0" width="0" height="0" fill="rgba(249, 249, 249, 1)" /><path  id="直线 1" style="stroke:#292727; stroke-width:1; stroke-opacity:1; stroke-dasharray:0 0" transform="translate(0 0)  rotate(0 22 15)" d="M0,30L44,0 " /><path  id="直线 2" style="stroke:#292727; stroke-width:1; stroke-opacity:1; stroke-dasharray:0 0" transform="translate(0 30)  rotate(0 0.0005 40)" d="M0,0L0,80 " /><path  id="直线 3" style="stroke:#292727; stroke-width:1; stroke-opacity:1; stroke-dasharray:0 0" transform="translate(0 110)  rotate(0 7.5 5.5)" d="M0,0L15,11 " /><path  id="直线 4" style="stroke:#292727; stroke-width:1; stroke-opacity:1; stroke-dasharray:0 0" transform="translate(15 93)  rotate(0 20.5 14)" d="M0,28L41,0 " /><path  id="直线 5" style="stroke:#292727; stroke-width:1; stroke-opacity:1; stroke-dasharray:0 0" transform="translate(44 0)  rotate(0 6 7.5)" d="M0,0L12,15 " /><path  id="直线 6" style="stroke:#292727; stroke-width:1; stroke-opacity:1; stroke-dasharray:0 0" transform="translate(56 15)  rotate(0 0.0005 39)" d="M0,0L0,78 " /><path  id="直线 7" style="stroke:#292727; stroke-width:1; stroke-opacity:1; stroke-dasharray:0 0" transform="translate(15 41)  rotate(0 0.0005 37.5)" d="M0,75L0,0 " /><path  id="直线 8" style="stroke:#292727; stroke-width:1; stroke-opacity:1; stroke-dasharray:0 0" transform="translate(15 15)  rotate(0 20.5 13)" d="M41,0L0,26 " /><path  id="直线 9" style="stroke:#292727; stroke-width:1; stroke-opacity:1; stroke-dasharray:0 0" transform="translate(0 30)  rotate(0 7.5 5.5)" d="M15,11L0,0 " /></svg>