<svg xmlns="http://www.w3.org/2000/svg" xmlns:xlink="http://www.w3.org/1999/xlink" width="33.000999999999976" height="117" viewBox="0 0 33.000999999999976 117" fill="none"><rect x="0" y="0" width="0" height="0" fill="rgba(249, 249, 249, 1)" /><path  id="直线 1" style="stroke:#292727; stroke-width:1; stroke-opacity:1; stroke-dasharray:0 0" transform="translate(0 0)  rotate(0 7.5 8)" d="M0,16L15,0 " /><path  id="直线 2" style="stroke:#292727; stroke-width:1; stroke-opacity:1; stroke-dasharray:0 0" transform="translate(15 0)  rotate(0 9 8)" d="M0,0L18,16 " /><path  id="直线 3" style="stroke:#292727; stroke-width:1; stroke-opacity:1; stroke-dasharray:0 0" transform="translate(33 16)  rotate(0 0.0005 44)" d="M0,0L0,88 " /><path  id="直线 4" style="stroke:#292727; stroke-width:1; stroke-opacity:1; stroke-dasharray:0 0" transform="translate(0 16)  rotate(0 0.0005 44)" d="M0,0L0,88 " /><path  id="直线 5" style="stroke:#292727; stroke-width:1; stroke-opacity:1; stroke-dasharray:0 0" transform="translate(0 104)  rotate(0 7.5 6.5)" d="M0,0L15,13 " /><path  id="直线 6" style="stroke:#292727; stroke-width:1; stroke-opacity:1; stroke-dasharray:0 0" transform="translate(15 104)  rotate(0 9 6.5)" d="M0,13L18,0 " /><path  id="直线 7" style="stroke:#292727; stroke-width:1; stroke-opacity:1; stroke-dasharray:0 0" transform="translate(15 34)  rotate(0 0.0005 41.5)" d="M0,83L0,0 " /><path  id="直线 9" style="stroke:#292727; stroke-width:1; stroke-opacity:1; stroke-dasharray:0 0" transform="translate(0 16)  rotate(0 7.5 9)" d="M0,0L15,18 " /><path  id="直线 8" style="stroke:#292727; stroke-width:1; stroke-opacity:1; stroke-dasharray:0 0" transform="translate(15 16)  rotate(0 9 9)" d="M18,0L0,18 " /></svg>